<svg width="125" height="54" viewBox="0 0 125 54" fill="none" xmlns="http://www.w3.org/2000/svg">
<g clip-path="url(#clip0_1_7617)">
<path d="M115.56 27.0278L124.813 0.32019L98.0232 8.18981L99.3556 2.65649L76.1995 10.7721L76.9503 5.75515L62.4657 11.2393L47.9811 5.75515L48.7319 10.7721L25.576 2.65649L26.9082 8.18981L0.0947266 0.32019L9.34744 27.0278L0.0947266 53.7352L26.9082 45.8657L25.576 51.3989L48.7319 43.308L47.9811 48.3004L62.4657 42.8162L76.9503 48.3004L76.1995 43.308L99.3556 51.3989L98.0232 45.8657L124.813 53.7352L115.56 27.0278Z" fill="#EF3124"/>
<path d="M109.504 31.5773H106.549L103.158 27.7409V31.5773H100.857V22.4782H103.158V26.0933L106.331 22.4782H109.213L105.338 26.8065L109.504 31.5773ZM96.8116 25.872H93.6385V22.4782H91.3615V31.5773H93.6626V27.987H96.8356V31.5773H99.1369V22.4782H96.8356V25.872H96.8116ZM30.25 27.3967C30.2017 29.0936 29.9836 29.4379 29.0389 29.4379V31.5773H29.378C31.7276 31.5773 32.2846 30.3479 32.3815 27.6181L32.4784 24.5931H34.6828V31.5773H36.9838V22.4782H30.4196L30.25 27.3967ZM46.091 28.3804C46.091 29.9297 45.195 31.5773 42.7001 31.5773H38.7276V22.4782H41.0287V25.2326H42.6758C44.8559 25.2326 46.091 26.3638 46.091 28.3804ZM43.766 28.3804C43.766 27.6181 43.2814 27.2737 42.4822 27.2737H41.0046V29.5854H42.4822C43.3056 29.5854 43.766 29.192 43.766 28.3804ZM57.9598 27.0278C57.9598 29.6838 56.1917 31.5773 53.5756 31.7988V35.2173H51.2746V31.7988C48.6585 31.5773 46.8904 29.6838 46.8904 27.0278C46.8904 24.3964 48.6585 22.5028 51.2746 22.2814V18.8877H53.5756V22.2569C56.1917 22.4782 57.9598 24.3718 57.9598 27.0278ZM51.2746 24.4456C49.9909 24.6177 49.2157 25.6014 49.2157 27.0278C49.2157 28.4541 50.0152 29.4132 51.2746 29.61V24.4456ZM55.6345 27.0278C55.6345 25.6014 54.8351 24.6423 53.5756 24.4456V29.5854C54.8351 29.4132 55.6345 28.4541 55.6345 27.0278ZM67.1399 29.487V31.5773H66.3405C65.4684 31.5773 64.7903 31.2331 64.4998 30.6182C64.1607 31.1346 63.3856 31.7988 61.9806 31.7988C60.067 31.7988 58.7592 30.4954 58.7592 28.6019C58.7592 26.7819 59.9703 25.6998 62.0049 25.6998H64.2816C64.2816 24.5931 63.7004 24.1751 62.8283 24.1751C61.7384 24.1751 61.3993 24.7653 61.3267 25.085H59.0014C59.1223 23.5357 60.4061 22.0355 62.8283 22.0355C65.1779 22.0355 66.5826 23.4373 66.5826 25.6752V28.7247C66.5586 29.2904 66.7282 29.487 67.1399 29.487ZM64.2573 27.5934H62.4166C61.7867 27.5934 61.0845 27.7409 61.0845 28.6263C61.0845 29.5363 61.7384 29.8312 62.5619 29.8312C63.5065 29.8312 64.2573 29.2411 64.2573 28.1836V27.5934ZM80.7041 27.6427C80.7041 30.2002 79.1296 31.5773 76.3683 31.5773H71.4028V18.8877H79.7352V21.1994H73.8008V23.7816H76.3683C79.1296 23.7816 80.7041 25.2326 80.7041 27.6427ZM78.2576 27.6427C78.2576 26.5851 77.5311 25.9949 76.2714 25.9949H73.8251V29.2904H76.2714C77.5551 29.2904 78.2576 28.7247 78.2576 27.6427ZM90.0538 29.487V31.5773H89.2543C88.3823 31.5773 87.7041 31.2331 87.4134 30.6182C87.0743 31.1346 86.2992 31.7988 84.8945 31.7988C82.9809 31.7988 81.6728 30.4954 81.6728 28.6019C81.6728 26.7819 82.8839 25.6998 84.9188 25.6998H87.1955C87.1955 24.5931 86.6142 24.1751 85.7422 24.1751C84.6523 24.1751 84.3132 24.7653 84.2403 25.085H81.9153C82.0362 23.5357 83.32 22.0355 85.7422 22.0355C88.0916 22.0355 89.4965 23.4373 89.4965 25.6752V28.7247C89.4965 29.2904 89.6418 29.487 90.0538 29.487ZM87.1955 27.5934H85.3545C84.7249 27.5934 84.0224 27.7409 84.0224 28.6263C84.0224 29.5363 84.6763 29.8312 85.5 29.8312C86.4447 29.8312 87.1955 29.2411 87.1955 28.1836V27.5934ZM19.423 31.5773H16.9039C16.9039 31.5773 16.9039 31.5773 20.7067 20.6337C21.07 19.5763 21.506 18.7401 22.8867 18.7401C24.2673 18.7401 24.6791 19.5763 25.0182 20.6337C28.6272 31.5773 28.6272 31.5773 28.6272 31.5773H25.9628L25.1393 28.9705H20.2949L19.423 31.5773ZM21.0216 26.7819H24.4369L22.814 21.5928H22.7413L21.0216 26.7819ZM16.6375 37.6763H28.8937V35.0942H16.6375V37.6763Z" fill="white"/>
</g>
<defs>
<clipPath id="clip0_1_7617">
<rect width="125" height="54" fill="white"/>
</clipPath>
</defs>
</svg>
