<svg width="144" height="236" viewBox="0 0 144 236" fill="none" xmlns="http://www.w3.org/2000/svg">
<mask id="mask0_2003_553" style="mask-type:alpha" maskUnits="userSpaceOnUse" x="0" y="0" width="144" height="236">
<rect width="144" height="236" fill="#D9D9D9"/>
</mask>
<g mask="url(#mask0_2003_553)">
<path d="M87.6868 168.291L116.858 189.123V205.106L87.6868 184.681V168.291Z" fill="#181717"/>
<path d="M116.861 167.075L100.976 177.983L116.861 189.119L132.977 178.098L116.861 167.075Z" fill="#2A2929"/>
<path d="M101.292 194.07L116.858 205.106V221.089L101.292 210.459V194.07Z" fill="#181717"/>
<path d="M132.977 178.083L116.855 189.123V205.106L132.977 194.476V178.083Z" fill="#2A2929"/>
<path d="M132.977 194.066L116.855 205.106V221.089L132.977 210.459V194.066Z" fill="#2A2929"/>
<path d="M64.9053 181.524L94.0765 202.356V218.338L64.9053 197.914V181.524Z" fill="#181717"/>
<path d="M94.0792 180.308L78.1946 191.215L94.0792 202.351L110.195 191.331L94.0792 180.308Z" fill="#2A2929"/>
<path d="M78.5108 207.302L94.0769 218.338V234.321L78.5108 223.691V207.302Z" fill="#181717"/>
<path d="M110.195 191.315L94.0735 202.356V218.338L110.195 207.709V191.315Z" fill="#2A2929"/>
<path d="M110.196 207.298L94.0736 218.339V234.321L110.196 223.692V207.298Z" fill="#2A2929"/>
<path d="M94.9554 153.629L79.1114 164.466L94.9554 175.3L110.799 164.466L94.9554 153.629Z" fill="#8FFF00"/>
<path d="M130.536 109.073L60.2094 157.161V208.308L130.536 160.219V109.073Z" fill="#8FFF00"/>
<path d="M9.89673 123.25L60.2091 157.44V208.309L9.89673 174.396V123.25Z" fill="#74CA08"/>
<path d="M71.3302 2.22484L1.00408 50.3261L71.3302 98.4148L141.656 50.3261L71.3302 2.22484Z" fill="#2A2929"/>
<path d="M11.5653 148.17L27.1314 159.207V191.533L11.5653 180.496V148.17Z" fill="#74CA08"/>
<path d="M11.5653 180.496L27.1314 191.533V207.515L11.5653 196.886V180.496Z" fill="#E7D1AF"/>
<path d="M43.2545 180.492L27.1325 191.533V207.515L43.2545 196.886V180.492Z" fill="#F8E6CA"/>
<path d="M27.4087 137.611L11.5647 148.448L27.4087 159.282L43.2527 148.448L27.4087 137.611Z" fill="#8FFF00"/>
<path d="M43.2545 148.17L27.1325 159.207V191.533L43.2545 180.496V148.17Z" fill="#8FFF00"/>
<path d="M141.654 50.3256L71.3276 98.4143V169.018L141.654 120.93V50.3256Z" fill="#F8E6CA"/>
<path d="M1.00415 50.3256L71.3303 98.4143V169.018L1.00415 120.93V50.3256Z" fill="#E7D1AF"/>
<path d="M71.3302 98.4145L1.00367 50.3256V63.9462L71.3302 112.035V98.4145Z" fill="#181717"/>
<path d="M71.3302 98.4145L141.657 50.3256V63.9462L71.3302 112.035V98.4145Z" fill="#2A2929"/>
<path d="M0.999955 50.3256L33.5223 72.5631V143.167L0.999955 120.93V50.3256Z" fill="#181717"/>
<path d="M127.199 91.4648L116.637 98.681V119.817L127.199 112.601V91.4648Z" fill="#F7FFFD"/>
<path d="M105.52 105.63L94.957 112.846V133.983L105.52 126.766V105.63Z" fill="#F7FFFD"/>
<path d="M122.752 94.5009L116.636 98.6704V119.807L122.752 115.637V94.5009Z" fill="black"/>
<path d="M101.115 108.694L95 112.864V134L101.115 129.831V108.694Z" fill="black"/>
<path d="M133.872 107.932L122.753 115.637V121.553L133.872 114.259L133.872 107.932Z" fill="#FE34C6"/>
<path d="M99.4033 130.945L88.2847 138.65V144.565L99.4033 137.271L99.4033 130.945Z" fill="#FE34C6"/>
</g>
</svg>
