<svg width="250" height="250" viewBox="0 0 250 250" fill="none" xmlns="http://www.w3.org/2000/svg">
<g clip-path="url(#clip0_292_809)">
<rect width="250" height="250" fill="#EF3124"/>
<path d="M115.465 104.737L108.243 95.6837L88.6553 96.7933L95.8771 105.847L115.465 104.737Z" fill="#74CA08"/>
<path d="M114.377 85.5358L108.243 95.6836L88.6551 96.7932L94.7892 86.6454L114.377 85.5358Z" fill="#8FFF00"/>
<path d="M125.004 104.194L117.782 95.1404L108.097 95.689L115.072 104.756L125.004 104.194Z" fill="#E7D1AF"/>
<path d="M123.919 85.0017L117.783 95.1496L108.098 95.6982L113.986 85.5644L123.919 85.0017Z" fill="#F8E6CA"/>
<path d="M130.9 94.4014L124.877 104.374L117.769 95.1452L123.79 85.1729L130.9 94.4014Z" fill="#F8E6CA"/>
<path d="M87.561 122.182L96.7407 116.657L113.371 123.93L104.191 129.455L87.561 122.182Z" fill="#181717"/>
<path d="M104.191 129.455L113.371 123.93L121.593 127.526L112.623 133.142L104.191 129.455Z" fill="#181717"/>
<path d="M111.319 113.152L113.371 123.929L121.593 127.525L119.752 116.84L111.319 113.152Z" fill="#2A2929"/>
<path d="M85.5936 111.781L87.604 122.37L96.7421 116.656L94.7332 106.068L85.5936 111.781Z" fill="#8FFF00"/>
<path d="M94.6906 105.88L96.7412 116.657L113.371 123.929L111.321 113.153L94.6906 105.88Z" fill="#2A2929"/>
<path d="M67.4153 127.713L76.0887 134.003L75.8944 152.152L67.2211 145.862L67.4153 127.713Z" fill="#181717"/>
<path d="M67.2211 145.862L75.8945 152.153L75.7985 161.126L67.1227 155.064L67.2211 145.862Z" fill="#181717"/>
<path d="M85.0102 146.051L75.892 152.152L75.796 161.126L84.9117 155.255L85.0102 146.051Z" fill="#2A2929"/>
<path d="M76.2182 121.836L67.2574 127.825L76.088 134.003L85.0488 128.016L76.2182 121.836Z" fill="#8FFF00"/>
<path d="M85.2043 127.903L76.0862 134.003L75.892 152.152L85.0101 146.052L85.2043 127.903Z" fill="#2A2929"/>
<path d="M98.0278 79.3929L67.037 115.832L74.5932 143.538L105.584 107.099L98.0278 79.3929Z" fill="#8FFF00"/>
<path d="M34.7724 104.896L67.0776 115.983L74.5928 143.538L42.3287 132.601L34.7724 104.896Z" fill="#74CA08"/>
<path d="M50.1712 30.2603L19.1822 66.7064L64.3821 82.366L95.3729 45.9267L50.1712 30.2603Z" fill="#2A2929"/>
<path d="M95.3714 45.927L64.3805 82.3663L74.8114 120.612L105.802 84.1729L95.3714 45.927Z" fill="#F8E6CA"/>
<path d="M19.1818 66.7064L64.3817 82.3659L74.8127 120.612L29.6128 104.952L19.1818 66.7064Z" fill="#E7D1AF"/>
<path d="M64.3819 82.3659L19.182 66.7064L21.1942 74.0845L66.3941 89.7441L64.3819 82.3659Z" fill="#181717"/>
<path d="M64.3819 82.3659L95.3727 45.9267L97.385 53.3048L66.3941 89.7441L64.3819 82.3659Z" fill="#2A2929"/>
<path d="M19.1795 66.707L40.082 73.9482L50.513 112.194L29.6104 104.953L19.1795 66.707Z" fill="#181717"/>
<path d="M93.6198 70.3477L88.9641 75.8172L92.0868 87.2668L96.7425 81.7972L93.6198 70.3477Z" fill="#F7FFFD"/>
<path d="M83.9683 81.2237L79.3126 86.6933L82.4353 98.1428L87.091 92.6732L83.9683 81.2237Z" fill="#F7FFFD"/>
<path d="M91.6589 72.6493L88.9623 75.8114L92.0849 87.2609L94.7816 84.0988L91.6589 72.6493Z" fill="black"/>
<path d="M83.9698 81.228L81.2731 84.39L84.3958 95.8396L87.0924 92.6775L83.9698 81.228Z" fill="black"/>
<path d="M99.6667 78.2824L94.782 84.0988L95.656 87.3032L100.601 81.7094L99.6667 78.2824Z" fill="#FE34C6"/>
<path d="M84.3955 95.8403L79.5108 101.657L80.3848 104.861L85.3302 99.2673L84.3955 95.8403Z" fill="#FE34C6"/>
<path d="M56.1309 140.469L55.7832 128.894L39.4453 118.032L39.793 129.608L56.1309 140.469Z" fill="#74CA08"/>
<path d="M66.7781 124.454L55.783 128.894L39.4451 118.032L50.4402 113.592L66.7781 124.454Z" fill="#8FFF00"/>
<path d="M64.089 145.757L63.7413 134.181L55.6634 128.811L55.8055 140.25L64.089 145.757Z" fill="#E7D1AF"/>
<path d="M74.7334 129.75L63.7363 134.189L55.6585 128.818L66.4479 124.242L74.7334 129.75Z" fill="#F8E6CA"/>
<path d="M74.6804 141.459L63.8796 145.825L63.7276 134.177L74.527 129.809L74.6804 141.459Z" fill="#F8E6CA"/>
<path d="M168.756 169.504L159.432 162.083L140.04 167.696L149.364 175.118L168.756 169.504Z" fill="#74CA08"/>
<path d="M149.364 175.117L140.04 167.696L130.452 170.472L139.532 177.963L149.364 175.117Z" fill="#74CA08"/>
<path d="M143.863 156.107L140.04 167.696L130.452 170.471L134.029 158.954L143.863 156.107Z" fill="#8FFF00"/>
<path d="M163.253 150.494L159.432 162.082L140.04 167.696L143.861 156.108L163.253 150.494Z" fill="#8FFF00"/>
<path d="M188.237 179.702L176.33 180.198L165.349 197.138L177.256 196.642L188.237 179.702Z" fill="#74CA08"/>
<path d="M177.256 196.642L165.35 197.138L159.92 205.514L171.689 205.231L177.256 196.642Z" fill="#74CA08"/>
<path d="M160.651 185.876L165.35 197.138L159.92 205.514L155.083 194.467L160.651 185.876Z" fill="#8FFF00"/>
<path d="M171.631 168.938L176.331 180.198L165.35 197.138L160.65 185.878L171.631 168.938Z" fill="#8FFF00"/>
<path d="M163.738 154.999L165.687 166.828L153.958 164.354L152.008 152.527L163.738 154.999Z" fill="#8FFF00"/>
<path d="M160.922 139.942C161.863 143.797 164.951 144.698 167.819 141.955C170.686 139.212 172.248 133.864 171.306 130.009C170.364 126.154 167.277 125.253 164.409 127.996C161.542 130.739 159.98 136.087 160.922 139.942Z" fill="white"/>
<path d="M167.476 140.553C166.235 141.739 165.055 142.529 164.154 142.857C163.703 143.02 163.333 143.064 163.064 142.996C162.795 142.928 162.644 142.755 162.585 142.515C162.527 142.275 162.552 141.933 162.692 141.475C162.833 141.015 163.079 140.469 163.425 139.871C164.114 138.677 165.16 137.338 166.401 136.151C167.641 134.964 168.822 134.174 169.723 133.847C170.174 133.683 170.543 133.64 170.813 133.708C171.081 133.776 171.232 133.948 171.291 134.188C171.35 134.428 171.324 134.77 171.184 135.229C171.044 135.689 170.797 136.235 170.452 136.832C169.763 138.026 168.717 139.366 167.476 140.553Z" stroke="black" stroke-width="0.594752"/>
<path d="M179.264 110.449L190.591 155.033L159.089 185.165L147.761 140.58L179.264 110.449Z" fill="#FE34C6"/>
<ellipse cx="158.122" cy="153.254" rx="2.65448" ry="3.79436" transform="rotate(179.633 158.122 153.254)" fill="white"/>
<path d="M234.285 167.972L190.591 155.033L159.089 185.165L202.782 198.104L234.285 167.972Z" fill="#C91C99"/>
<path d="M221.888 124.752L234.284 167.971L186.728 158.383L179.26 110.574L221.888 124.752Z" fill="#2A2929"/>
<path d="M174.36 138.667C175.172 138.287 175.437 139.683 174.729 140.612L164.493 154.041C164.031 154.647 163.448 154.586 163.322 153.918L161.818 145.991C161.691 145.323 162.09 144.417 162.62 144.168L174.36 138.667Z" fill="#8FFF00"/>
<path d="M174.36 138.667C175.172 138.287 175.437 139.683 174.729 140.612L164.493 154.041C164.031 154.647 163.448 154.586 163.322 153.918L161.818 145.991C161.691 145.323 162.09 144.417 162.62 144.168L174.36 138.667Z" fill="#8FFF00"/>
<path d="M163.048 135.922C163.909 138.884 166.342 139.458 168.484 137.205C170.625 134.951 171.662 130.724 170.802 127.762C169.941 124.8 167.507 124.225 165.366 126.479C163.225 128.732 162.187 132.96 163.048 135.922Z" fill="white"/>
<path d="M169.648 160.493C170.509 163.455 172.943 164.03 175.084 161.776C177.225 159.523 178.263 155.295 177.402 152.333C176.541 149.371 174.107 148.797 171.966 151.05C169.825 153.304 168.787 157.532 169.648 160.493Z" fill="white"/>
<path d="M166.878 132.542C165.971 133.497 165.106 134.136 164.451 134.413C164.121 134.552 163.866 134.591 163.689 134.556C163.513 134.522 163.449 134.424 163.425 134.344C163.402 134.264 163.393 134.108 163.471 133.806C163.549 133.502 163.702 133.111 163.939 132.654C164.411 131.745 165.155 130.691 166.062 129.736C166.969 128.782 167.834 128.143 168.489 127.866C168.818 127.727 169.074 127.687 169.251 127.722C169.427 127.757 169.491 127.855 169.515 127.935C169.538 128.015 169.547 128.171 169.469 128.473C169.391 128.777 169.238 129.168 169.001 129.625C168.529 130.534 167.785 131.588 166.878 132.542Z" stroke="black" stroke-width="1.06242"/>
<path d="M173.84 157.387C172.933 158.341 172.068 158.981 171.413 159.258C171.084 159.397 170.828 159.436 170.651 159.401C170.475 159.366 170.411 159.268 170.387 159.188C170.364 159.109 170.355 158.953 170.433 158.651C170.511 158.347 170.664 157.955 170.901 157.499C171.373 156.589 172.117 155.536 173.024 154.581C173.931 153.627 174.796 152.987 175.451 152.71C175.781 152.571 176.036 152.532 176.213 152.567C176.389 152.602 176.453 152.7 176.477 152.78C176.5 152.859 176.509 153.015 176.431 153.317C176.353 153.621 176.2 154.013 175.963 154.469C175.491 155.379 174.747 156.432 173.84 157.387Z" stroke="black" stroke-width="1.06242"/>
</g>
<defs>
<clipPath id="clip0_292_809">
<rect width="250" height="250" fill="white"/>
</clipPath>
</defs>
</svg>
